<svg id="visual" viewBox="0 0 900 600" width="900" height="600" xmlns="http://www.w3.org/2000/svg" xmlns:xlink="http://www.w3.org/1999/xlink" version="1.1"><path d="M0 535L37.5 520.3C75 505.7 150 476.3 225 466.2C300 456 375 465 450 469.8C525 474.7 600 475.3 675 461.5C750 447.7 825 419.3 862.5 405.2L900 391L900 601L862.5 601C825 601 750 601 675 601C600 601 525 601 450 601C375 601 300 601 225 601C150 601 75 601 37.5 601L0 601Z" fill="#009473" stroke-linecap="round" stroke-linejoin="miter"></path></svg>