<svg id="visual" viewBox="0 0 900 600" width="900" height="600" xmlns="http://www.w3.org/2000/svg" xmlns:xlink="http://www.w3.org/1999/xlink" version="1.1"><path d="M0 432L150 432L150 430L300 430L300 444L450 444L450 460L600 460L600 427L750 427L750 447L900 447L900 437L900 601L900 601L750 601L750 601L600 601L600 601L450 601L450 601L300 601L300 601L150 601L150 601L0 601Z" fill="#fcaf3c"></path><path d="M0 504L150 504L150 489L300 489L300 472L450 472L450 476L600 476L600 500L750 500L750 501L900 501L900 480L900 601L900 601L750 601L750 601L600 601L600 601L450 601L450 601L300 601L300 601L150 601L150 601L0 601Z" fill="#fa9424"></path><path d="M0 530L150 530L150 528L300 528L300 552L450 552L450 546L600 546L600 549L750 549L750 537L900 537L900 531L900 601L900 601L750 601L750 601L600 601L600 601L450 601L450 601L300 601L300 601L150 601L150 601L0 601Z" fill="#f7770f"></path></svg>