<?xml version="1.0" encoding="UTF-8"?>
<svg version="1.1" xmlns="http://www.w3.org/2000/svg" width="225" height="225">
<path d="M0 0 C0.495 0.99 0.495 0.99 1 2 C4.02934491 2.65772428 4.02934491 2.65772428 7 3 C5.72967411 6.81097766 4.48097549 7.14007875 1.0625 9.125 C-4.12233558 12.29126027 -8.42752173 15.88861635 -12.80859375 20.08203125 C-14.83092104 21.85201823 -16.62437155 22.81478493 -19 24 C-20.16953416 26.42383077 -20.16953416 26.42383077 -21 29 C-21.66 29.99 -22.32 30.98 -23 32 C-23.66 32 -24.32 32 -25 32 C-25.66 33.65 -26.32 35.3 -27 37 C-26.34 37 -25.68 37 -25 37 C-25 36.34 -25 35.68 -25 35 C-23.67407227 33.8425293 -23.67407227 33.8425293 -21.81640625 32.57421875 C-20.80163208 31.8766748 -20.80163208 31.8766748 -19.76635742 31.16503906 C-19.03908447 30.67745117 -18.31181152 30.18986328 -17.5625 29.6875 C-16.83200439 29.1934668 -16.10150879 28.69943359 -15.34887695 28.19042969 C-3.53348037 20.26717917 -3.53348037 20.26717917 0 19 C1.485 19.495 1.485 19.495 3 20 C2.85214455 21.60830523 2.65500441 23.21212543 2.4375 24.8125 C2.28087891 26.15248047 2.28087891 26.15248047 2.12109375 27.51953125 C1 30 1 30 -1.9375 31.53125 C-3.29114747 32.02226704 -4.64537868 32.51167606 -6 33 C-7.69207927 33.74061177 -9.37796316 34.49548192 -11.05859375 35.26171875 C-11.93837891 35.65810547 -12.81816406 36.05449219 -13.72460938 36.46289062 C-14.61986328 36.86701172 -15.51511719 37.27113281 -16.4375 37.6875 C-17.35982422 38.10322266 -18.28214844 38.51894531 -19.23242188 38.94726562 C-21.48853977 39.96427214 -23.74439187 40.98186351 -26 42 C-24.88625 42.268125 -23.7725 42.53625 -22.625 42.8125 C-19 44 -19 44 -17 47 C-16.875 50.0625 -16.875 50.0625 -17 53 C-17.18490007 55.32357511 -17.18490007 55.32357511 -15 58 C-14.55144977 61.51364345 -14.4520832 63.26632604 -16.6015625 66.14453125 C-21.06237251 69.59548362 -26.53166048 68.78126642 -32 69 C-32.33 61.74 -32.66 54.48 -33 47 C-43.33442114 59.81468221 -48.89368309 72.48835808 -54 88 C-58.42323682 87.41734728 -61.5155864 85.73233789 -65.3125 83.4375 C-66.38113281 82.79683594 -67.44976562 82.15617187 -68.55078125 81.49609375 C-69.35902344 81.00238281 -70.16726562 80.50867188 -71 80 C-69.68899716 74.56870252 -68.11242473 71.9068035 -64 68 C-63.505 67.505 -63.505 67.505 -63 67 C-63.66 66.67 -64.32 66.34 -65 66 C-64.37246964 61.3562753 -64.37246964 61.3562753 -62.5625 59.625 C-60.65065455 57.63668073 -60.11133056 55.93722899 -59.3125 53.3125 C-59.06113281 52.50425781 -58.80976562 51.69601563 -58.55078125 50.86328125 C-58.36902344 50.24839844 -58.18726563 49.63351563 -58 49 C-58.54269531 49.2165625 -59.08539063 49.433125 -59.64453125 49.65625 C-60.35996094 49.9346875 -61.07539062 50.213125 -61.8125 50.5 C-62.52019531 50.7784375 -63.22789063 51.056875 -63.95703125 51.34375 C-66 52 -66 52 -69 52 C-67.55319149 47.29787234 -67.55319149 47.29787234 -65.375 46.125 C-63.07983181 46.00420167 -61.08553946 46.19909674 -58.8125 46.5 C-57.554375 46.665 -56.29625 46.83 -55 47 C-54.67 46.67 -54.34 46.34 -54 46 C-56.31 46 -58.62 46 -61 46 C-60.4375 44.125 -60.4375 44.125 -59 42 C-55.4375 40.8125 -55.4375 40.8125 -52 40 C-51.67 39.67 -51.34 39.34 -51 39 C-54.24388943 38.080898 -57.39351063 37.71720745 -60.75 37.4375 C-61.73484375 37.35371094 -62.7196875 37.26992187 -63.734375 37.18359375 C-64.85585937 37.09271484 -64.85585937 37.09271484 -66 37 C-66 35.68 -66 34.36 -66 33 C-65.01 32.34 -64.02 31.68 -63 31 C-60.9765625 31.50390625 -60.9765625 31.50390625 -58.625 32.5625 C-54.49067799 34.35606617 -50.34224715 36.03403401 -46.125 37.625 C-36.33580981 41.32838039 -36.33580981 41.32838039 -35 44 C-31.87802522 42.6910428 -31.87802522 42.6910428 -30 40 C-30.99 40 -31.98 40 -33 40 C-33.33 39.01 -33.66 38.02 -34 37 C-34.33 38.32 -34.66 39.64 -35 41 C-38.15330554 40.39305845 -40.18888867 39.3583335 -42.75 37.4375 C-43.36359375 36.98246094 -43.9771875 36.52742188 -44.609375 36.05859375 C-45.06828125 35.70925781 -45.5271875 35.35992187 -46 35 C-45.34 34.34 -44.68 33.68 -44 33 C-46.64 31.02 -49.28 29.04 -52 27 C-51.67 26.01 -51.34 25.02 -51 24 C-47 24 -47 24 -45.515625 25.4609375 C-45.09796875 26.09257813 -44.6803125 26.72421875 -44.25 27.375 C-43.82203125 28.00148438 -43.3940625 28.62796875 -42.953125 29.2734375 C-42 31 -42 31 -42 33 C-41.34 33 -40.68 33 -40 33 C-39.34 33.99 -38.68 34.98 -38 36 C-38.37125 35.236875 -38.7425 34.47375 -39.125 33.6875 C-39.41375 32.800625 -39.7025 31.91375 -40 31 C-39.34 30.01 -38.68 29.02 -38 28 C-37.34 28 -36.68 28 -36 28 C-35.67 26.35 -35.34 24.7 -35 23 C-33.02 22.67 -31.04 22.34 -29 22 C-29.495 21.01 -29.495 21.01 -30 20 C-31.23317806 15.78356485 -30.71701285 12.88992678 -29.5625 8.6875 C-29.13130859 7.08455078 -29.13130859 7.08455078 -28.69140625 5.44921875 C-28.46324219 4.64097656 -28.23507813 3.83273438 -28 3 C-25.525 3.495 -25.525 3.495 -23 4 C-23.67170806 7.8063457 -24.72746564 11.35206816 -26 15 C-25.01 15 -24.02 15 -23 15 C-23.875 19.75 -23.875 19.75 -25 22 C-22.2587435 22.7555432 -22.2587435 22.7555432 -19 22 C-17.29782691 20.01647599 -16.05092923 17.89726193 -14.70703125 15.65625 C-10.8567562 9.66497532 -5.84184765 4.09722346 0 0 Z M-28 16 C-27 18 -27 18 -27 18 Z M-26 22 C-25 24 -25 24 -25 24 Z M-27 24 C-26 26 -26 26 -26 26 Z M-30 25 C-31.3271261 28.9813783 -31.06915913 32.85045227 -31 37 C-30.34 36.01 -29.68 35.02 -29 34 C-29.33 33.34 -29.66 32.68 -30 32 C-29.34 32 -28.68 32 -28 32 C-28.33 29.69 -28.66 27.38 -29 25 C-29.33 25 -29.66 25 -30 25 Z M-28 26 C-27 28 -27 28 -27 28 Z M-28 37 C-28.33 37.66 -28.66 38.32 -29 39 C-28.34 39 -27.68 39 -27 39 C-27.33 38.34 -27.66 37.68 -28 37 Z M-50 42 C-48.68 42.99 -47.36 43.98 -46 45 C-44.68 44.34 -43.36 43.68 -42 43 C-44.64 42.67 -47.28 42.34 -50 42 Z M-27 47 C-28.35618499 48.12534105 -28.35618499 48.12534105 -28.0625 51.0625 C-28.041875 52.031875 -28.02125 53.00125 -28 54 C-25.55519921 53.81171228 -25.55519921 53.81171228 -23 53 C-21.63979849 51.03241727 -21.63979849 51.03241727 -21 49 C-23.81509993 46.7226499 -23.81509993 46.7226499 -27 47 Z M-43 48 C-45.28258633 49.07674702 -47.4356434 50.19546116 -49.625 51.4375 C-50.23601563 51.77587891 -50.84703125 52.11425781 -51.4765625 52.46289062 C-52.988353 53.30146192 -54.49470399 54.14982577 -56 55 C-54.02 55.99 -54.02 55.99 -52 57 C-48.37 54.36 -44.74 51.72 -41 49 C-41.66 48.67 -42.32 48.34 -43 48 Z M-28 58 C-28 59.98 -28 61.96 -28 64 C-25.69 64 -23.38 64 -21 64 C-20.61781233 62.34385343 -20.28604898 60.67542976 -20 59 C-21.18424326 57.58422523 -21.18424326 57.58422523 -24.5625 57.9375 C-26.2640625 57.9684375 -26.2640625 57.9684375 -28 58 Z M-59 61 C-59.66 62.32 -60.32 63.64 -61 65 C-59.68 63.68 -58.36 62.36 -57 61 C-57.66 61 -58.32 61 -59 61 Z " fill="#E3BC43" transform="translate(79,62)"/>
<path d="M0 0 C0.495 0.99 0.495 0.99 1 2 C4.02934491 2.65772428 4.02934491 2.65772428 7 3 C5.72967411 6.81097766 4.48097549 7.14007875 1.0625 9.125 C-4.12233558 12.29126027 -8.42752173 15.88861635 -12.80859375 20.08203125 C-14.83092104 21.85201823 -16.62437155 22.81478493 -19 24 C-20.16953416 26.42383077 -20.16953416 26.42383077 -21 29 C-21.66 29.99 -22.32 30.98 -23 32 C-23.66 32 -24.32 32 -25 32 C-25.99 34.475 -25.99 34.475 -27 37 C-26.34 37 -25.68 37 -25 37 C-25 36.34 -25 35.68 -25 35 C-23.67407227 33.8425293 -23.67407227 33.8425293 -21.81640625 32.57421875 C-21.13989014 32.10918945 -20.46337402 31.64416016 -19.76635742 31.16503906 C-19.03908447 30.67745117 -18.31181152 30.18986328 -17.5625 29.6875 C-16.83200439 29.1934668 -16.10150879 28.69943359 -15.34887695 28.19042969 C-3.53348037 20.26717917 -3.53348037 20.26717917 0 19 C0.99 19.33 1.98 19.66 3 20 C2.85214455 21.60830523 2.65500441 23.21212543 2.4375 24.8125 C2.28087891 26.15248047 2.28087891 26.15248047 2.12109375 27.51953125 C1 30 1 30 -1.95703125 31.53515625 C-3.30459751 32.02368579 -4.6522639 32.51193918 -6 33 C-7.63384558 33.72834486 -9.26114003 34.47150223 -10.8828125 35.2265625 C-11.74003906 35.6184375 -12.59726563 36.0103125 -13.48046875 36.4140625 C-15.25290868 37.2256672 -17.02373182 38.0408115 -18.79296875 38.859375 C-19.64761719 39.24867187 -20.50226562 39.63796875 -21.3828125 40.0390625 C-22.14996582 40.39178223 -22.91711914 40.74450195 -23.70751953 41.10791016 C-26.12373257 42.04814897 -28.44842966 42.56450345 -31 43 C-30.67 42.01 -30.34 41.02 -30 40 C-30.99 40 -31.98 40 -33 40 C-33.33 39.01 -33.66 38.02 -34 37 C-34.33 38.32 -34.66 39.64 -35 41 C-38.15330554 40.39305845 -40.18888867 39.3583335 -42.75 37.4375 C-43.36359375 36.98246094 -43.9771875 36.52742188 -44.609375 36.05859375 C-45.29773437 35.53458984 -45.29773437 35.53458984 -46 35 C-45.34 34.34 -44.68 33.68 -44 33 C-46.64 31.02 -49.28 29.04 -52 27 C-51.505 25.515 -51.505 25.515 -51 24 C-47 24 -47 24 -45.515625 25.4609375 C-45.09796875 26.09257813 -44.6803125 26.72421875 -44.25 27.375 C-43.60804687 28.31472656 -43.60804687 28.31472656 -42.953125 29.2734375 C-42 31 -42 31 -42 33 C-41.34 33 -40.68 33 -40 33 C-39.34 33.99 -38.68 34.98 -38 36 C-38.37125 35.236875 -38.7425 34.47375 -39.125 33.6875 C-39.41375 32.800625 -39.7025 31.91375 -40 31 C-39.34 30.01 -38.68 29.02 -38 28 C-37.34 28 -36.68 28 -36 28 C-35.67 26.35 -35.34 24.7 -35 23 C-33.02 22.67 -31.04 22.34 -29 22 C-29.33 21.34 -29.66 20.68 -30 20 C-31.23317806 15.78356485 -30.71701285 12.88992678 -29.5625 8.6875 C-29.13130859 7.08455078 -29.13130859 7.08455078 -28.69140625 5.44921875 C-28.46324219 4.64097656 -28.23507813 3.83273438 -28 3 C-25.525 3.495 -25.525 3.495 -23 4 C-23.67170806 7.8063457 -24.72746564 11.35206816 -26 15 C-25.01 15 -24.02 15 -23 15 C-23.875 19.75 -23.875 19.75 -25 22 C-22.2587435 22.7555432 -22.2587435 22.7555432 -19 22 C-17.29782691 20.01647599 -16.05092923 17.89726193 -14.70703125 15.65625 C-10.8567562 9.66497532 -5.84184765 4.09722346 0 0 Z M-28 16 C-27 18 -27 18 -27 18 Z M-26 22 C-25 24 -25 24 -25 24 Z M-27 24 C-26 26 -26 26 -26 26 Z M-30 25 C-31.3271261 28.9813783 -31.06915913 32.85045227 -31 37 C-30.34 36.01 -29.68 35.02 -29 34 C-29.33 33.34 -29.66 32.68 -30 32 C-29.34 32 -28.68 32 -28 32 C-28.33 29.69 -28.66 27.38 -29 25 C-29.33 25 -29.66 25 -30 25 Z M-28 26 C-27 28 -27 28 -27 28 Z M-28 37 C-28.33 37.66 -28.66 38.32 -29 39 C-28.34 39 -27.68 39 -27 39 C-27.33 38.34 -27.66 37.68 -28 37 Z " fill="#CFB44E" transform="translate(79,62)"/>
<path d="M0 0 C0.33 1.32 0.66 2.64 1 4 C1.61875 3.79375 2.2375 3.5875 2.875 3.375 C3.926875 3.189375 3.926875 3.189375 5 3 C5.66 3.66 6.32 4.32 7 5 C6.34 5 5.68 5 5 5 C5 5.66 5 6.32 5 7 C3.68 7 2.36 7 1 7 C1.33 9.97 1.66 12.94 2 16 C3.32 15.34 4.64 14.68 6 14 C6.144375 13.071875 6.28875 12.14375 6.4375 11.1875 C7.19102168 6.91754381 8.469816 5.47863983 12 3 C14.8875397 2.88235949 17.13848301 3.36949626 20 4 C20 4.66 20 5.32 20 6 C20.99 6 21.98 6 23 6 C23 5.34 23 4.68 23 4 C24.57879955 3.72280619 26.16353067 3.47925857 27.75 3.25 C29.07257813 3.04117188 29.07257813 3.04117188 30.421875 2.828125 C33 3 33 3 35.28125 4.59375 C37.42959825 7.60143755 37.59053261 9.58225008 37.75 13.25 C37.80671875 14.32765625 37.8634375 15.4053125 37.921875 16.515625 C37.94765625 17.33546875 37.9734375 18.1553125 38 19 C37.01 19.66 36.02 20.32 35 21 C32.41073669 18.41073669 32.62601957 16.97294721 32.375 13.375 C32.30023438 12.37210938 32.22546875 11.36921875 32.1484375 10.3359375 C32.09945312 9.56507812 32.05046875 8.79421875 32 8 C30.68 8 29.36 8 28 8 C27.67 11.96 27.34 15.92 27 20 C25.4840625 19.9690625 25.4840625 19.9690625 23.9375 19.9375 C20.03981308 19.88523126 20.03981308 19.88523126 16.4375 20.6875 C12.35158048 21.05894723 10.4524137 20.1051303 7 18 C7 18.66 7 19.32 7 20 C3.2983569 20.94693195 1.60887535 21.30443767 -1.875 19.5625 C-2.57625 19.046875 -3.2775 18.53125 -4 18 C-4.60328125 18.73089844 -4.60328125 18.73089844 -5.21875 19.4765625 C-7.4517553 21.38636966 -8.59825803 21.40401742 -11.5 21.375 C-12.2734375 21.38273437 -13.046875 21.39046875 -13.84375 21.3984375 C-16.4932497 20.90885603 -17.39954768 20.13734528 -19 18 C-19.0625 15.5 -19.0625 15.5 -18 13 C-14.9375 11.1875 -14.9375 11.1875 -12 10 C-12 9.34 -12 8.68 -12 8 C-12.598125 8.165 -13.19625 8.33 -13.8125 8.5 C-16 9 -16 9 -19 9 C-19 7.68 -19 6.36 -19 5 C-16.1778917 3.08096635 -14.87098068 3.00889788 -11.375 3.25 C-8 4 -8 4 -6 6 C-4.02 4.02 -2.04 2.04 0 0 Z M12 7 C11.67 7.99 11.34 8.98 11 10 C13.31 10 15.62 10 18 10 C17.34 9.01 16.68 8.02 16 7 C14.68 7 13.36 7 12 7 Z M21 7 C21.33 8.98 21.66 10.96 22 13 C18.37 13 14.74 13 11 13 C11.33 13.99 11.66 14.98 12 16 C16.05431692 17.15837626 18.21812119 16.83691257 22 15 C22.33 15.66 22.66 16.32 23 17 C23 13.7 23 10.4 23 7 C22.34 7 21.68 7 21 7 Z M-7 8 C-6.67 10.97 -6.34 13.94 -6 17 C-5.01 16.67 -4.02 16.34 -3 16 C-3 13.36 -3 10.72 -3 8 C-4.32 8 -5.64 8 -7 8 Z M-14 14 C-14.33 14.99 -14.66 15.98 -15 17 C-13.68 17 -12.36 17 -11 17 C-11.33 16.01 -11.66 15.02 -12 14 C-12.66 14 -13.32 14 -14 14 Z " fill="#F0FAFC" transform="translate(144,110)"/>
<path d="M0 0 C0.99 0.33 1.98 0.66 3 1 C2.47918699 5.60193792 0.41275618 8.62392399 -2.1875 12.3125 C-7.21760872 19.75589788 -10.18650653 27.51339674 -13 36 C-13.38285156 37.1446875 -13.76570313 38.289375 -14.16015625 39.46875 C-14.43730469 40.3040625 -14.71445312 41.139375 -15 42 C-19.42323682 41.41734728 -22.5155864 39.73233789 -26.3125 37.4375 C-27.91544922 36.47650391 -27.91544922 36.47650391 -29.55078125 35.49609375 C-30.35902344 35.00238281 -31.16726562 34.50867188 -32 34 C-30.67665103 28.51755425 -29.02282486 26.02282486 -25 22 C-24.649375 21.278125 -24.29875 20.55625 -23.9375 19.8125 C-22.7091723 17.43773311 -21.36222765 17.18111382 -19 16 C-18.4328125 15.25234375 -17.865625 14.5046875 -17.28125 13.734375 C-14.62292673 10.54802861 -11.79598125 8.48215372 -8.375 6.1875 C-7.78976563 5.78080078 -7.20453125 5.37410156 -6.6015625 4.95507812 C-2.27075893 2 -2.27075893 2 0 2 C0 1.34 0 0.68 0 0 Z " fill="#EB1922" transform="translate(40,108)"/>
<path d="M0 0 C0.33 4.29 0.66 8.58 1 13 C2.32 11.68 3.64 10.36 5 9 C8.25 8.25 8.25 8.25 11 8 C9.62845496 10.95409701 8.01136276 13.44008376 6 16 C7.44253657 19.36591866 9.33264727 21.51047079 12 24 C11.67 24.66 11.34 25.32 11 26 C6.56541027 24.6062718 4.12621626 22.39417765 1 19 C0.67 20.98 0.34 22.96 0 25 C-0.78375 24.979375 -1.5675 24.95875 -2.375 24.9375 C-4.98114961 24.81315937 -4.98114961 24.81315937 -7 26 C-7.66 25.67 -8.32 25.34 -9 25 C-9.4140625 22.05859375 -9.4140625 22.05859375 -9.625 18.4375 C-9.73714844 16.64119141 -9.73714844 16.64119141 -9.8515625 14.80859375 C-9.90054688 13.88175781 -9.94953125 12.95492187 -10 12 C-11.65 12.66 -13.3 13.32 -15 14 C-15 17.63 -15 21.26 -15 25 C-16.65 25 -18.3 25 -20 25 C-20 19.72 -20 14.44 -20 9 C-11.6 7.8 -11.6 7.8 -8 9 C-6.97103319 9.9701687 -5.96613008 10.96724026 -5 12 C-4.96261719 11.38511719 -4.92523438 10.77023438 -4.88671875 10.13671875 C-4.82097656 9.32847656 -4.75523438 8.52023438 -4.6875 7.6875 C-4.62949219 6.88699219 -4.57148437 6.08648437 -4.51171875 5.26171875 C-3.99058337 2.95837994 -2.79582327 0 0 0 Z " fill="#F1FBFC" transform="translate(99,105)"/>
<path d="M0 0 C1.41655793 -0.0272415 2.83327045 -0.04650467 4.25 -0.0625 C5.43335938 -0.07990234 5.43335938 -0.07990234 6.640625 -0.09765625 C8.96858185 -0.00130042 10.81708062 0.18373741 13 1 C15.30854775 4.46282162 15.17238021 5.94906499 15 10 C14.81509993 12.32357511 14.81509993 12.32357511 17 15 C17.44855023 18.51364345 17.5479168 20.26632604 15.3984375 23.14453125 C12.27636194 25.55981772 10.16013895 25.59359444 6.25 25.75 C5.07953125 25.80671875 3.9090625 25.8634375 2.703125 25.921875 C1.81109375 25.94765625 0.9190625 25.9734375 0 26 C-0.19777236 22.6046836 -0.38139685 19.20874308 -0.5625 15.8125 C-0.61857422 14.85279297 -0.67464844 13.89308594 -0.73242188 12.90429688 C-0.78076172 11.97294922 -0.82910156 11.04160156 -0.87890625 10.08203125 C-0.9260376 9.22843018 -0.97316895 8.3748291 -1.02172852 7.49536133 C-0.99892429 4.87646242 -0.59213206 2.54596848 0 0 Z M5 4 C3.64381501 5.12534105 3.64381501 5.12534105 3.9375 8.0625 C3.958125 9.031875 3.97875 10.00125 4 11 C6.44480079 10.81171228 6.44480079 10.81171228 9 10 C10.36020151 8.03241727 10.36020151 8.03241727 11 6 C8.18490007 3.7226499 8.18490007 3.7226499 5 4 Z M4 15 C4 16.98 4 18.96 4 21 C6.31 21 8.62 21 11 21 C11.38218767 19.34385343 11.71395102 17.67542976 12 16 C10.81575674 14.58422523 10.81575674 14.58422523 7.4375 14.9375 C5.7359375 14.9684375 5.7359375 14.9684375 4 15 Z " fill="#F0F8FA" transform="translate(47,105)"/>
<path d="M0 0 C2.475 0.495 2.475 0.495 5 1 C4.32829194 4.8063457 3.27253436 8.35206816 2 12 C2.99 12 3.98 12 5 12 C4.40523781 16.75809749 2.5093872 20.94710294 0 25 C-0.66 25.33 -1.32 25.66 -2 26 C-2.72693904 27.97888961 -3.39816251 29.97954558 -4 32 C-4.33 30.68 -4.66 29.36 -5 28 C-5.66 28 -6.32 28 -7 28 C-6.67 31.3 -6.34 34.6 -6 38 C-11.02692063 37.54300722 -14.14896261 35.00758252 -18 32 C-17.34 31.34 -16.68 30.68 -16 30 C-18.64 28.02 -21.28 26.04 -24 24 C-23.505 22.515 -23.505 22.515 -23 21 C-19 21 -19 21 -17.515625 22.4609375 C-17.09796875 23.09257813 -16.6803125 23.72421875 -16.25 24.375 C-15.60804687 25.31472656 -15.60804687 25.31472656 -14.953125 26.2734375 C-14 28 -14 28 -14 30 C-13.34 30 -12.68 30 -12 30 C-11.34 30.99 -10.68 31.98 -10 33 C-10.37125 32.236875 -10.7425 31.47375 -11.125 30.6875 C-11.41375 29.800625 -11.7025 28.91375 -12 28 C-11.34 27.01 -10.68 26.02 -10 25 C-9.34 25 -8.68 25 -8 25 C-7.67 23.35 -7.34 21.7 -7 20 C-5.02 19.67 -3.04 19.34 -1 19 C-1.33 18.34 -1.66 17.68 -2 17 C-3.23317806 12.78356485 -2.71701285 9.88992678 -1.5625 5.6875 C-1.13130859 4.08455078 -1.13130859 4.08455078 -0.69140625 2.44921875 C-0.46324219 1.64097656 -0.23507813 0.83273438 0 0 Z M0 13 C1 15 1 15 1 15 Z " fill="#C6B364" transform="translate(51,65)"/>
<path d="M0 0 C-0.474375 0.53625 -0.94875 1.0725 -1.4375 1.625 C-3.21637396 3.96168681 -3.21637396 3.96168681 -3.4375 7.0625 C-4 10 -4 10 -6.0625 11.875 C-6.701875 12.24625 -7.34125 12.6175 -8 13 C-6.02 13.99 -4.04 14.98 -2 16 C-1.875 18.875 -1.875 18.875 -2 22 C-4 24 -4 24 -6.27734375 24.265625 C-7.15519531 24.26046875 -8.03304687 24.2553125 -8.9375 24.25 C-9.81277344 24.25515625 -10.68804687 24.2603125 -11.58984375 24.265625 C-14 24 -14 24 -17 22 C-17.3125 19 -17.3125 19 -17 16 C-16.34 15.34 -15.68 14.68 -15 14 C-15.29329272 11.69254991 -15.29329272 11.69254991 -16 9 C-16.34403308 6.66822025 -16.67949202 4.33512959 -17 2 C-14.13144187 0.40273468 -11.76144984 -0.34683486 -8.5 -0.6875 C-7.37078125 -0.81705078 -7.37078125 -0.81705078 -6.21875 -0.94921875 C-3.94822578 -1.00118497 -2.16494764 -0.65440463 0 0 Z M-10 3 C-10.99 3.495 -10.99 3.495 -12 4 C-11.67 5.32 -11.34 6.64 -11 8 C-9.68 7.67 -8.36 7.34 -7 7 C-7 6.01 -7 5.02 -7 4 C-7.99 3.67 -8.98 3.34 -10 3 Z M-12 17 C-12 18.32 -12 19.64 -12 21 C-10.35 21 -8.7 21 -7 21 C-6.67 20.01 -6.34 19.02 -6 18 C-8.97 17.505 -8.97 17.505 -12 17 Z " fill="#F0F9FC" transform="translate(198,114)"/>
<path d="M0 0 C-0.14785545 1.60830523 -0.34499559 3.21212543 -0.5625 4.8125 C-0.66691406 5.70582031 -0.77132812 6.59914063 -0.87890625 7.51953125 C-2 10 -2 10 -4.94921875 11.53125 C-5.88979126 11.87216675 -5.88979126 11.87216675 -6.84936523 12.2199707 C-9.28835642 13.10458608 -11.60172686 14.1656881 -13.953125 15.26171875 C-14.819375 15.65810547 -15.685625 16.05449219 -16.578125 16.46289062 C-18.37673009 17.28725129 -20.17357967 18.11545179 -21.96875 18.94726562 C-22.82984375 19.33978516 -23.6909375 19.73230469 -24.578125 20.13671875 C-25.35575195 20.49467529 -26.13337891 20.85263184 -26.93457031 21.22143555 C-29 22 -29 22 -32 22 C-32 21.01 -32 20.02 -32 19 C-31.34 19 -30.68 19 -30 19 C-30 18.34 -30 17.68 -30 17 C-29.34 17 -28.68 17 -28 17 C-28 16.34 -28 15.68 -28 15 C-26.67407227 13.8425293 -26.67407227 13.8425293 -24.81640625 12.57421875 C-24.13989014 12.10918945 -23.46337402 11.64416016 -22.76635742 11.16503906 C-22.03908447 10.67745117 -21.31181152 10.18986328 -20.5625 9.6875 C-19.46675659 8.9464502 -19.46675659 8.9464502 -18.34887695 8.19042969 C-4.09802205 -1.36600735 -4.09802205 -1.36600735 0 0 Z " fill="#EA1C26" transform="translate(82,82)"/>
<path d="M0 0 C1.61648437 0.04060547 1.61648437 0.04060547 3.265625 0.08203125 C4.08546875 0.11683594 4.9053125 0.15164062 5.75 0.1875 C6.3034764 2.26303648 6.75 4.03115964 6.75 6.1875 C7.08 7.1775 7.41 8.1675 7.75 9.1875 C6.69921875 10.67578125 6.69921875 10.67578125 4.75 12.1875 C1.39453125 12.48046875 1.39453125 12.48046875 -2.4375 12.375 C-3.70980469 12.34792969 -4.98210938 12.32085937 -6.29296875 12.29296875 C-7.75669922 12.24076172 -7.75669922 12.24076172 -9.25 12.1875 C-9.52632268 10.75482696 -9.77019671 9.31586665 -10 7.875 C-10.20882812 6.67423828 -10.20882812 6.67423828 -10.421875 5.44921875 C-10.25 3.1875 -10.25 3.1875 -8.65625 1.40625 C-5.59364996 -0.14493704 -3.41617823 -0.11139712 0 0 Z " fill="#F1F9FA" transform="translate(56.25,143.8125)"/>
<path d="M0 0 C2.8125 1 2.8125 1 3.94921875 3.19921875 C4.85211806 6.12853463 5.21676334 8.75897627 5.4375 11.8125 C5.51226562 12.78832031 5.58703125 13.76414062 5.6640625 14.76953125 C5.71304688 15.50558594 5.76203125 16.24164063 5.8125 17 C2.37281308 17.92864118 -0.60893083 18.22841931 -4.1875 18 C-5.1775 17.34 -6.1675 16.68 -7.1875 16 C-7.375 12.875 -7.375 12.875 -7.1875 10 C-6.218125 9.566875 -5.24875 9.13375 -4.25 8.6875 C-0.91018235 7.2985139 -0.91018235 7.2985139 -0.1875 4 C-3.6525 5.485 -3.6525 5.485 -7.1875 7 C-7.5175 5.68 -7.8475 4.36 -8.1875 3 C-5.26531329 0.8513333 -3.67536997 0 0 0 Z M-1.1875 10 C-2.1775 10.495 -2.1775 10.495 -3.1875 11 C-2.8575 12.32 -2.5275 13.64 -2.1875 15 C-1.5275 14.67 -0.8675 14.34 -0.1875 14 C-0.5175 12.68 -0.8475 11.36 -1.1875 10 Z " fill="#F2FAFB" transform="translate(72.1875,113)"/>
<path d="M0 0 C0.66 0 1.32 0 2 0 C2.04946113 4.21751282 2.08574827 8.43487168 2.10986328 12.65258789 C2.119917 14.08718812 2.13356194 15.52176789 2.15087891 16.95629883 C2.17515549 19.01909438 2.18648919 21.08161885 2.1953125 23.14453125 C2.20578613 24.38565674 2.21625977 25.62678223 2.22705078 26.90551758 C2 30 2 30 0 33 C-3.625 33.6875 -3.625 33.6875 -7 34 C-7.495 32.515 -7.495 32.515 -8 31 C-6.74458443 28.48916886 -5.49936512 28.12874554 -3 27 C-2.98018066 26.25314941 -2.96036133 25.50629883 -2.93994141 24.73681641 C-2.84491789 21.36584395 -2.73514741 17.99551071 -2.625 14.625 C-2.57859375 12.8615625 -2.57859375 12.8615625 -2.53125 11.0625 C-2.47324219 9.38027344 -2.47324219 9.38027344 -2.4140625 7.6640625 C-2.3826416 6.62717285 -2.3512207 5.5902832 -2.31884766 4.52197266 C-2 2 -2 2 0 0 Z " fill="#F4FCFC" transform="translate(122,105)"/>
<path d="M0 0 C-1.13907307 3.41721921 -2.40937023 4.55740622 -5 7 C-5.66 7.721875 -6.32 8.44375 -7 9.1875 C-9.07086385 11.06422036 -10.27355989 11.61050856 -13 12 C-13.1546875 13.423125 -13.1546875 13.423125 -13.3125 14.875 C-14 18 -14 18 -17 20 C-16.67 22.31 -16.34 24.62 -16 27 C-14.35 26.67 -12.7 26.34 -11 26 C-11 25.34 -11 24.68 -11 24 C-10.34 24 -9.68 24 -9 24 C-8.87625 25.134375 -8.7525 26.26875 -8.625 27.4375 C-8.41875 28.613125 -8.2125 29.78875 -8 31 C-7.34 31.33 -6.68 31.66 -6 32 C-6 32.66 -6 33.32 -6 34 C-10.42323682 33.41734728 -13.5155864 31.73233789 -17.3125 29.4375 C-18.91544922 28.47650391 -18.91544922 28.47650391 -20.55078125 27.49609375 C-21.35902344 27.00238281 -22.16726562 26.50867188 -23 26 C-21.67665103 20.51755425 -20.02282486 18.02282486 -16 14 C-15.649375 13.278125 -15.29875 12.55625 -14.9375 11.8125 C-13.7091723 9.43773311 -12.36222765 9.18111382 -10 8 C-8.64613064 6.34997172 -7.31321858 4.6825613 -6 3 C-2.48275862 0 -2.48275862 0 0 0 Z " fill="#CB2033" transform="translate(31,116)"/>
<path d="M0 0 C11.625 -0.25 11.625 -0.25 15 2 C15.29296875 4.3828125 15.29296875 4.3828125 15.1875 7.125 C15.16042969 8.03507813 15.13335937 8.94515625 15.10546875 9.8828125 C15.07066406 10.58148438 15.03585938 11.28015625 15 12 C13.68 12 12.36 12 11 12 C11 10.68 11 9.36 11 8 C8.36 8 5.72 8 3 8 C3 9.32 3 10.64 3 12 C2.01 12 1.02 12 0 12 C0 8.04 0 4.08 0 0 Z " fill="#F2FAFB" transform="translate(120,144)"/>
<path d="M0 0 C2 0 2 0 3.5625 1.1875 C5.36521506 3.46048856 5.77870194 5.12312519 6 8 C5.34 8.66 4.68 9.32 4 10 C3.97691403 12.22128555 3.97691403 12.22128555 4.375 14.625 C4.48585938 15.44226563 4.59671875 16.25953125 4.7109375 17.1015625 C4.80632813 17.72804687 4.90171875 18.35453125 5 19 C3.68 18.67 2.36 18.34 1 18 C1 15.69 1 13.38 1 11 C0.34 11 -0.32 11 -1 11 C-1 11.66 -1 12.32 -1 13 C-1.66 13 -2.32 13 -3 13 C-3.33 13.66 -3.66 14.32 -4 15 C-4.66 14.67 -5.32 14.34 -6 14 C-6 13.34 -6 12.68 -6 12 C-6.66 11.67 -7.32 11.34 -8 11 C-8 9.35 -8 7.7 -8 6 C-7.01 5.67 -6.02 5.34 -5 5 C-4.34 4.01 -3.68 3.02 -3 2 C-2.01 2 -1.02 2 0 2 C0 1.34 0 0.68 0 0 Z " fill="#EC1A25" transform="translate(21,129)"/>
<path d="M0 0 C1.32 0.66 2.64 1.32 4 2 C4 2.33 4 2.66 4 3 C6.31 3.33 8.62 3.66 11 4 C11 2.68 11 1.36 11 0 C12.32 0 13.64 0 15 0 C15 3.96 15 7.92 15 12 C13.68 12 12.36 12 11 12 C11 10.68 11 9.36 11 8 C8.36 8 5.72 8 3 8 C3 9.32 3 10.64 3 12 C1.68 12 0.36 12 -1 12 C-1.02687279 10.18757948 -1.04633715 8.37504767 -1.0625 6.5625 C-1.07410156 5.55316406 -1.08570313 4.54382813 -1.09765625 3.50390625 C-1 1 -1 1 0 0 Z " fill="#EAF7FC" transform="translate(182,144)"/>
<path d="M0 0 C0.33 0.99 0.66 1.98 1 3 C-0.65 3.66 -2.3 4.32 -4 5 C-0.52674819 6.1577506 2.36067448 6.06866652 6 6 C2.3268788 8.44874747 -1.51515877 10.24234546 -5.5 12.125 C-6.65822266 12.68380859 -6.65822266 12.68380859 -7.83984375 13.25390625 C-8.58363281 13.60582031 -9.32742187 13.95773438 -10.09375 14.3203125 C-10.77115234 14.64273926 -11.44855469 14.96516602 -12.14648438 15.29736328 C-14 16 -14 16 -17 16 C-17 15.01 -17 14.02 -17 13 C-16.34 13 -15.68 13 -15 13 C-15 12.34 -15 11.68 -15 11 C-14.34 11 -13.68 11 -13 11 C-13 10.34 -13 9.68 -13 9 C-10.86229382 7.37322909 -8.7324466 5.86020356 -6.5 4.375 C-5.87996094 3.95476562 -5.25992188 3.53453125 -4.62109375 3.1015625 C-3.08482736 2.06162833 -1.54292476 1.03002944 0 0 Z " fill="#CB2730" transform="translate(67,88)"/>
<path d="M0 0 C0.33 0.66 0.66 1.32 1 2 C4.02934491 2.65772428 4.02934491 2.65772428 7 3 C5.71135185 6.86594445 4.14688337 7.52130566 0.75 9.6875 C-0.68085937 10.62142578 -0.68085937 10.62142578 -2.140625 11.57421875 C-5.09378911 13.04676643 -6.75784127 13.31356645 -10 13 C-7.60081458 7.80176491 -4.89252631 3.14519549 0 0 Z " fill="#F4BD22" transform="translate(79,62)"/>
<path d="M0 0 C2.54150644 0.88052191 3.7513248 1.6315923 5.265625 3.875 C5.59046875 4.57625 5.9153125 5.2775 6.25 6 C6.58515625 6.70125 6.9203125 7.4025 7.265625 8.125 C8 10 8 10 8 12 C6.68 12 5.36 12 4 12 C3.34 11.34 2.68 10.68 2 10 C-0.06874034 9.3574765 -0.06874034 9.3574765 -2 9 C-2.33 9.99 -2.66 10.98 -3 12 C-4.32 11.67 -5.64 11.34 -7 11 C-6.21572648 9.35063087 -5.42234741 7.70558873 -4.625 6.0625 C-4.18414062 5.14597656 -3.74328125 4.22945312 -3.2890625 3.28515625 C-2 1 -2 1 0 0 Z " fill="#EDF8F9" transform="translate(164,144)"/>
<path d="M0 0 C0.33 0.66 0.66 1.32 1 2 C0.14453125 3.9609375 0.14453125 3.9609375 -1.1875 6.375 C-4.15687705 12.04833492 -6.12147896 17.892183 -8 24 C-8.33 24 -8.66 24 -9 24 C-9.33 20.37 -9.66 16.74 -10 13 C-9.34 13.33 -8.68 13.66 -8 14 C-8 12.35 -8 10.7 -8 9 C-8.99 8.67 -9.98 8.34 -11 8 C-11 7.34 -11 6.68 -11 6 C-11.66 6 -12.32 6 -13 6 C-13 6.66 -13 7.32 -13 8 C-13.99 8 -14.98 8 -16 8 C-16 7.01 -16 6.02 -16 5 C-14.35 4.67 -12.7 4.34 -11 4 C-10.67 4.99 -10.34 5.98 -10 7 C-9.01 7 -8.02 7 -7 7 C-7 6.34 -7 5.68 -7 5 C-6.01 5 -5.02 5 -4 5 C-3.67 4.01 -3.34 3.02 -3 2 C-2.01 1.34 -1.02 0.68 0 0 Z " fill="#E52124" transform="translate(34,123)"/>
<path d="M0 0 C3 1 3 1 4.38671875 3.50390625 C4.81597656 4.51324219 5.24523437 5.52257812 5.6875 6.5625 C6.34298828 8.08037109 6.34298828 8.08037109 7.01171875 9.62890625 C7.33785156 10.41136719 7.66398437 11.19382813 8 12 C6.35 11.67 4.7 11.34 3 11 C3 10.34 3 9.68 3 9 C1.35 9 -0.3 9 -2 9 C-2.33 9.99 -2.66 10.98 -3 12 C-4.32 12 -5.64 12 -7 12 C-5.77759242 7.95665186 -4.39561694 4.49360803 -2 1 C-1.34 0.67 -0.68 0.34 0 0 Z " fill="#F0FAF9" transform="translate(103,144)"/>
<path d="M0 0 C3.68754757 0.49831724 5.60490662 1.10067643 8 4 C8.4125 3.34 8.825 2.68 9.25 2 C9.8275 1.34 10.405 0.68 11 0 C12.32 0 13.64 0 15 0 C13.92598892 2.91517292 13.22189824 4.77810176 11 7 C10.28591666 8.98356483 9.61382258 10.98315437 9 13 C8.01 12.67 7.02 12.34 6 12 C4.96898053 9.68020619 3.97063483 7.34570085 3 5 C1.41754725 3.24850835 1.41754725 3.24850835 0 2 C0 1.34 0 0.68 0 0 Z " fill="#EDFAFD" transform="translate(72,144)"/>
<path d="M0 0 C4 0 4 0 5.484375 1.4609375 C5.90203125 2.09257813 6.3196875 2.72421875 6.75 3.375 C7.17796875 4.00148438 7.6059375 4.62796875 8.046875 5.2734375 C9 7 9 7 9 9 C9.66 9 10.32 9 11 9 C12.625 11.5 12.625 11.5 14 14 C14.99 13.67 15.98 13.34 17 13 C16.67 14.32 16.34 15.64 16 17 C12.84669446 16.39305845 10.81111133 15.3583335 8.25 13.4375 C7.63640625 12.98246094 7.0228125 12.52742188 6.390625 12.05859375 C5.93171875 11.70925781 5.4728125 11.35992187 5 11 C5.66 10.34 6.32 9.68 7 9 C4.36 7.02 1.72 5.04 -1 3 C-0.67 2.01 -0.34 1.02 0 0 Z " fill="#C5B871" transform="translate(28,86)"/>
<path d="M0 0 C5.85659906 1.66153012 11.4590134 3.47041916 17 6 C16.01 6.495 16.01 6.495 15 7 C14.67 7.99 14.34 8.98 14 10 C13.34 9.67 12.68 9.34 12 9 C12.33 8.67 12.66 8.34 13 8 C9.75611057 7.080898 6.60648937 6.71720745 3.25 6.4375 C2.26515625 6.35371094 1.2803125 6.26992187 0.265625 6.18359375 C-0.85585937 6.09271484 -0.85585937 6.09271484 -2 6 C-2 2 -2 2 0 0 Z " fill="#BAAF65" transform="translate(15,93)"/>
<path d="M0 0 C0.99 0 1.98 0 3 0 C3.05399736 1.45792884 3.09279177 2.91642712 3.125 4.375 C3.14820313 5.18710938 3.17140625 5.99921875 3.1953125 6.8359375 C3 9 3 9 1 11 C1 9.68 1 8.36 1 7 C0.34 7 -0.32 7 -1 7 C-1 9.31 -1 11.62 -1 14 C-4.32378142 11.78414572 -4.98819642 10.77126791 -6 7 C-5.34 6.01 -4.68 5.02 -4 4 C-2.68 4.33 -1.36 4.66 0 5 C0 3.35 0 1.7 0 0 Z " fill="#D1BB59" transform="translate(45,86)"/>
<path d="M0 0 C0.33 1.32 0.66 2.64 1 4 C2.65 4.33 4.3 4.66 6 5 C3.02575322 9.00379374 -0.05323863 11.99702939 -4 15 C-4.66 15 -5.32 15 -6 15 C-5.37246964 10.3562753 -5.37246964 10.3562753 -3.5625 8.625 C-1.18376532 6.15111594 -0.80200797 3.26972479 0 0 Z " fill="#C4A05C" transform="translate(20,113)"/>
<path d="M0 0 C2.02045442 0.60183749 4.02111039 1.27306096 6 2 C6.33 2.66 6.66 3.32 7 4 C7.99 4 8.98 4 10 4 C9.34 5.32 8.68 6.64 8 8 C5 8 5 8 3 7 C0.90178785 7.39938767 0.90178785 7.39938767 -1 8 C-1.185625 7.071875 -1.185625 7.071875 -1.375 6.125 C-1.87197356 3.80879168 -1.87197356 3.80879168 -4 2 C-2.68 2 -1.36 2 0 2 C0 1.34 0 0.68 0 0 Z " fill="#D3AF4E" transform="translate(37,102)"/>
<path d="M0 0 C1.65 0.33 3.3 0.66 5 1 C4.33501617 5.38889325 2.81242323 8.9811485 1 13 C0.34 13 -0.32 13 -1 13 C-2.0070238 7.96488101 -1.97387813 4.76052962 0 0 Z " fill="#D5BB47" transform="translate(51,65)"/>
<path d="M0 0 C0.99 0.33 1.98 0.66 3 1 C2.44010697 4.99012371 1.24330232 7.5255052 -1.0625 10.8125 C-1.88427734 11.99779297 -1.88427734 11.99779297 -2.72265625 13.20703125 C-3.14417969 13.79871094 -3.56570312 14.39039062 -4 15 C-4.33 14.34 -4.66 13.68 -5 13 C-4.06421005 10.64018187 -3.06652192 8.30368736 -2 6 C-3.98 6.66 -5.96 7.32 -8 8 C-3.375 3.125 -3.375 3.125 0 2 C0 1.34 0 0.68 0 0 Z " fill="#C83E46" transform="translate(40,108)"/>
<path d="M0 0 C0.33 1.32 0.66 2.64 1 4 C1.66 4 2.32 4 3 4 C2.690625 4.721875 2.38125 5.44375 2.0625 6.1875 C1.07439461 8.80307309 0.4712246 11.25118982 0 14 C-0.99 14 -1.98 14 -3 14 C-2.67 13.34 -2.34 12.68 -2 12 C-2.99 12 -3.98 12 -5 12 C-5.33 9.03 -5.66 6.06 -6 3 C-4.68 3.99 -3.36 4.98 -2 6 C-2 5.34 -2 4.68 -2 4 C-1.34 4 -0.68 4 0 4 C0 2.68 0 1.36 0 0 Z " fill="#BBA275" transform="translate(51,90)"/>
<path d="M0 0 C0.99 0 1.98 0 3 0 C3 0.66 3 1.32 3 2 C3.66 2 4.32 2 5 2 C4.45276317 5.37462715 3.9451 7.08235 2 10 C0.68 10 -0.64 10 -2 10 C-2.17942163 6.05272412 -2.09350689 3.4019487 0 0 Z " fill="#D9B54D" transform="translate(54,84)"/>
<path d="M0 0 C-0.66 3.3 -1.32 6.6 -2 10 C-2.99 10.33 -3.98 10.66 -5 11 C-4.34 8.36 -3.68 5.72 -3 3 C-3.55429688 3.22816406 -4.10859375 3.45632812 -4.6796875 3.69140625 C-5.40414062 3.97886719 -6.12859375 4.26632813 -6.875 4.5625 C-7.95394531 4.99755859 -7.95394531 4.99755859 -9.0546875 5.44140625 C-11 6 -11 6 -13 5 C-11.40377344 3.96679519 -9.79770894 2.94877571 -8.1875 1.9375 C-7.29417969 1.36902344 -6.40085937 0.80054687 -5.48046875 0.21484375 C-3 -1 -3 -1 0 0 Z " fill="#BC3344" transform="translate(82,82)"/>
<path d="M0 0 C2.64 0.33 5.28 0.66 8 1 C8 2.32 8 3.64 8 5 C5.08291076 6.98362069 3.87619096 6.9876191 0.25 6.625 C-0.8225 6.41875 -1.895 6.2125 -3 6 C-2 4 -2 4 1 3 C0.67 2.01 0.34 1.02 0 0 Z " fill="#DDB435" transform="translate(28,106)"/>
<path d="M0 0 C0.99 0 1.98 0 3 0 C3 3.96 3 7.92 3 12 C1.68 12 0.36 12 -1 12 C-1.02687279 10.18757948 -1.04633715 8.37504767 -1.0625 6.5625 C-1.07410156 5.55316406 -1.08570313 4.54382813 -1.09765625 3.50390625 C-1 1 -1 1 0 0 Z " fill="#F6FCFD" transform="translate(145,144)"/>
<path d="M0 0 C-1.13907307 3.41721921 -2.40937023 4.55740622 -5 7 C-5.66 7.721875 -6.32 8.44375 -7 9.1875 C-9 11 -9 11 -11.125 11.5 C-11.74375 11.665 -12.3625 11.83 -13 12 C-14.09166275 13.93330603 -14.09166275 13.93330603 -15 16 C-15.99 16.66 -16.98 17.32 -18 18 C-17.33333333 16.66666667 -16.66666667 15.33333333 -16 14 C-15.71125 13.29875 -15.4225 12.5975 -15.125 11.875 C-13.72031128 9.53385214 -12.41454044 9.20727022 -10 8 C-8.64613064 6.34997172 -7.31321858 4.6825613 -6 3 C-2.48275862 0 -2.48275862 0 0 0 Z " fill="#C73F42" transform="translate(31,116)"/>
<path d="M0 0 C0.33 0.66 0.66 1.32 1 2 C0.34 2.4125 -0.32 2.825 -1 3.25 C-1.66 3.8275 -2.32 4.405 -3 5 C-3 6.32 -3 7.64 -3 9 C-2.34 9.33 -1.68 9.66 -1 10 C-3.35968744 12.09749995 -4.54616994 12.96905704 -7.75 13.1875 C-8.4925 13.125625 -9.235 13.06375 -10 13 C-7.60081458 7.80176491 -4.89252631 3.14519549 0 0 Z " fill="#DEBA41" transform="translate(79,62)"/>
<path d="M0 0 C0.33 0.66 0.66 1.32 1 2 C0.34 2.66 -0.32 3.32 -1 4 C-1 3.34 -1 2.68 -1 2 C-1.54269531 2.2165625 -2.08539063 2.433125 -2.64453125 2.65625 C-3.35996094 2.9346875 -4.07539063 3.213125 -4.8125 3.5 C-5.87404297 3.91765625 -5.87404297 3.91765625 -6.95703125 4.34375 C-9 5 -9 5 -12 5 C-9.46402413 -2.06450422 -6.83468423 -1.19335756 0 0 Z " fill="#C3B75D" transform="translate(22,109)"/>
<path d="M0 0 C0.66 0 1.32 0 2 0 C2.12375 1.134375 2.2475 2.26875 2.375 3.4375 C2.684375 5.2009375 2.684375 5.2009375 3 7 C3.66 7.33 4.32 7.66 5 8 C5 8.66 5 9.32 5 10 C2.29068581 9.84518205 0.53415961 9.51827919 -1.4453125 7.59765625 C-2.67679642 6.10228292 -3.8429837 4.5537076 -5 3 C-3.35 2.67 -1.7 2.34 0 2 C0 1.34 0 0.68 0 0 Z " fill="#D62133" transform="translate(20,140)"/>
<path d="M0 0 C-0.99 0.495 -0.99 0.495 -2 1 C-2.33 1.99 -2.66 2.98 -3 4 C-4.99622361 6.8834341 -6.12266284 7.02286934 -9.6875 7.6875 C-10.780625 7.790625 -11.87375 7.89375 -13 8 C-12.071875 7.1028125 -12.071875 7.1028125 -11.125 6.1875 C-8.86323046 3.99188856 -8.86323046 3.99188856 -7 1 C-4.00987436 -0.92911331 -3.51287078 -1.17095693 0 0 Z " fill="#E21E21" transform="translate(39,114)"/>
<path d="M0 0 C0.66 0 1.32 0 2 0 C3.125 6.75 3.125 6.75 2 9 C1.34 9 0.68 9 0 9 C0 8.01 0 7.02 0 6 C-1.65 5.67 -3.3 5.34 -5 5 C-5 4.67 -5 4.34 -5 4 C-3.35 4 -1.7 4 0 4 C0 2.68 0 1.36 0 0 Z " fill="#F6FBFC" transform="translate(194,145)"/>
<path d="M0 0 C2.4375 0.8125 2.4375 0.8125 5 2 C5.33 2.99 5.66 3.98 6 5 C3.03 5 0.06 5 -3 5 C-1 1 -1 1 0 0 Z " fill="#CDBC42" transform="translate(15,93)"/>
<path d="M0 0 C-6.36363636 5 -6.36363636 5 -11 5 C-11 4.01 -11 3.02 -11 2 C-10.34 2 -9.68 2 -9 2 C-9 1.34 -9 0.68 -9 0 C-5.93109813 -1.53445094 -3.29905734 -0.54984289 0 0 Z " fill="#B2494C" transform="translate(61,99)"/>
<path d="M0 0 C0.99 0 1.98 0 3 0 C3.05399736 1.45792884 3.09279177 2.91642712 3.125 4.375 C3.14820313 5.18710938 3.17140625 5.99921875 3.1953125 6.8359375 C3 9 3 9 1 11 C1 9.68 1 8.36 1 7 C0.34 6.67 -0.32 6.34 -1 6 C-0.67 4.02 -0.34 2.04 0 0 Z " fill="#EFC339" transform="translate(45,86)"/>
<path d="M0 0 C1.53690745 2.41040161 2.09752136 3.50082285 1.5390625 6.359375 C1.23742187 7.14828125 0.93578125 7.9371875 0.625 8.75 C0.32851563 9.54921875 0.03203125 10.3484375 -0.2734375 11.171875 C-0.51320313 11.77515625 -0.75296875 12.3784375 -1 13 C-1.33 13 -1.66 13 -2 13 C-2.33 9.37 -2.66 5.74 -3 2 C-2.01 2.495 -2.01 2.495 -1 3 C-0.67 2.01 -0.34 1.02 0 0 Z " fill="#C52639" transform="translate(27,134)"/>
<path d="M0 0 C0.99 0.33 1.98 0.66 3 1 C3 1.66 3 2.32 3 3 C2.34 3 1.68 3 1 3 C1 3.66 1 4.32 1 5 C-4.625 7 -4.625 7 -8 7 C-2.25 2 -2.25 2 0 2 C0 1.34 0 0.68 0 0 Z " fill="#C5412D" transform="translate(40,108)"/>
<path d="M0 0 C2.31 0.33 4.62 0.66 7 1 C7 1.99 7 2.98 7 4 C4.125 4.125 4.125 4.125 1 4 C0.34 3.34 -0.32 2.68 -1 2 C-0.67 1.34 -0.34 0.68 0 0 Z " fill="#E7C43F" transform="translate(30,100)"/>
<path d="M0 0 C0.66 0.33 1.32 0.66 2 1 C1.01 3.31 0.02 5.62 -1 8 C-2.32 7.67 -3.64 7.34 -5 7 C-4.34 5.68 -3.68 4.36 -3 3 C-2.34 3 -1.68 3 -1 3 C-0.67 2.01 -0.34 1.02 0 0 Z " fill="#F0FBFD" transform="translate(162,148)"/>
<path d="M0 0 C0.33 0.99 0.66 1.98 1 3 C-0.65 3.66 -2.3 4.32 -4 5 C-4 5.66 -4 6.32 -4 7 C-5.65 7 -7.3 7 -9 7 C-6.24479785 4.04070881 -3.53372712 1.96318174 0 0 Z " fill="#B62B38" transform="translate(67,88)"/>
<path d="M0 0 C0.99 0.33 1.98 0.66 3 1 C3 1.66 3 2.32 3 3 C-0.20015856 4.06671952 -1.88544294 3.94845472 -5.1875 3.5625 C-6.08855469 3.46066406 -6.98960938 3.35882813 -7.91796875 3.25390625 C-8.60503906 3.17011719 -9.29210938 3.08632812 -10 3 C-6.75836989 1.23749323 -4.69089056 0.9002462 -1 1 C-0.67 0.67 -0.34 0.34 0 0 Z " fill="#EAEDF0" transform="translate(57,150)"/>
<path d="M0 0 C1.32 0 2.64 0 4 0 C2.95125002 2.62187494 2.35068687 3.79371361 -0.125 5.25 C-0.74375 5.4975 -1.3625 5.745 -2 6 C-1.125 1.125 -1.125 1.125 0 0 Z " fill="#DCAE62" transform="translate(16,122)"/>
<path d="M0 0 C1.32 0 2.64 0 4 0 C4 1.98 4 3.96 4 6 C2.68 6 1.36 6 0 6 C0 4.02 0 2.04 0 0 Z " fill="#E8BC31" transform="translate(52,88)"/>
<path d="M0 0 C0.33 0.66 0.66 1.32 1 2 C0.00390625 4.3828125 0.00390625 4.3828125 -1.4375 7.125 C-1.91058594 8.03507813 -2.38367188 8.94515625 -2.87109375 9.8828125 C-3.24363281 10.58148438 -3.61617187 11.28015625 -4 12 C-4.33 12 -4.66 12 -5 12 C-5 10.35 -5 8.7 -5 7 C-4.34 7 -3.68 7 -3 7 C-3.061875 6.21625 -3.12375 5.4325 -3.1875 4.625 C-3.125625 3.75875 -3.06375 2.8925 -3 2 C-2.01 1.34 -1.02 0.68 0 0 Z " fill="#B12A37" transform="translate(34,123)"/>
<path d="M0 0 C0.66 0 1.32 0 2 0 C1.67 1.65 1.34 3.3 1 5 C-0.65 5.33 -2.3 5.66 -4 6 C-3.67 4.68 -3.34 3.36 -3 2 C-2.34 2.33 -1.68 2.66 -1 3 C-0.67 2.01 -0.34 1.02 0 0 Z " fill="#EB1E2E" transform="translate(34,118)"/>
<path d="M0 0 C0.99 0 1.98 0 3 0 C3.33 0.66 3.66 1.32 4 2 C4.99 2 5.98 2 7 2 C6.34 3.32 5.68 4.64 5 6 C4.01 6 3.02 6 2 6 C1.34 4.02 0.68 2.04 0 0 Z " fill="#B99A82" transform="translate(40,104)"/>
<path d="M0 0 C1.32 0 2.64 0 4 0 C4.33 1.65 4.66 3.3 5 5 C2.83125748 4.49396008 1.00032373 4.00016187 -1 3 C-0.67 2.01 -0.34 1.02 0 0 Z " fill="#CDC365" transform="translate(28,86)"/>
<path d="M0 0 C2.97 0.495 2.97 0.495 6 1 C5 4 5 4 2.5625 5.75 C1.2940625 6.36875 1.2940625 6.36875 0 7 C-0.66 6.67 -1.32 6.34 -2 6 C-0.68 5.34 0.64 4.68 2 4 C2 3.01 2 2.02 2 1 C1.34 0.67 0.68 0.34 0 0 Z " fill="#D2C466" transform="translate(80,64)"/>
<path d="M0 0 C0.99 0.33 1.98 0.66 3 1 C2.5359375 1.7734375 2.5359375 1.7734375 2.0625 2.5625 C0.70940713 5.66665423 0.38640576 8.65115007 0 12 C-0.33 12 -0.66 12 -1 12 C-1.02687279 10.18757948 -1.04633715 8.37504767 -1.0625 6.5625 C-1.07410156 5.55316406 -1.08570313 4.54382813 -1.09765625 3.50390625 C-1 1 -1 1 0 0 Z " fill="#E6F2FC" transform="translate(145,144)"/>
<path d="M0 0 C0 0.66 0 1.32 0 2 C-0.763125 1.938125 -1.52625 1.87625 -2.3125 1.8125 C-5.04525312 1.74101915 -5.04525312 1.74101915 -6.8125 3.5 C-7.204375 3.995 -7.59625 4.49 -8 5 C-8 3.35 -8 1.7 -8 0 C-5.13822943 -1.43088528 -3.06624227 -0.59991697 0 0 Z " fill="#F8FDFA" transform="translate(56,117)"/>
<path d="M0 0 C0.33 1.32 0.66 2.64 1 4 C1.66 4 2.32 4 3 4 C2.34 5.65 1.68 7.3 1 9 C-0.5 7.625 -0.5 7.625 -2 6 C-2 5.34 -2 4.68 -2 4 C-1.34 4 -0.68 4 0 4 C0 2.68 0 1.36 0 0 Z " fill="#C9AF5C" transform="translate(51,90)"/>
<path d="M0 0 C0.33 0.99 0.66 1.98 1 3 C3.01508358 3.73323796 3.01508358 3.73323796 5 4 C5 4.99 5 5.98 5 7 C3.68 7 2.36 7 1 7 C0.67 4.69 0.34 2.38 0 0 Z " fill="#DB2033" transform="translate(72,87)"/>
<path d="M0 0 C0.66 0 1.32 0 2 0 C2 2.64 2 5.28 2 8 C0.68 7.67 -0.64 7.34 -2 7 C-1.42415568 4.61435923 -0.77772405 2.33317216 0 0 Z " fill="#9D2343" transform="translate(10,135)"/>
<path d="M0 0 C3.875 1.75 3.875 1.75 5 4 C4.34 4 3.68 4 3 4 C2.67 4.99 2.34 5.98 2 7 C1.34 6.67 0.68 6.34 0 6 C0.33 5.01 0.66 4.02 1 3 C0.34 2.34 -0.32 1.68 -1 1 C-0.67 0.67 -0.34 0.34 0 0 Z " fill="#FBFCFD" transform="translate(54,145)"/>
<path d="M0 0 C0 0.99 0 1.98 0 3 C-0.66 3 -1.32 3 -2 3 C-2.268125 3.61875 -2.53625 4.2375 -2.8125 4.875 C-4 7 -4 7 -7 9 C-6.33333333 7.66666667 -5.66666667 6.33333333 -5 5 C-4.5359375 3.9171875 -4.5359375 3.9171875 -4.0625 2.8125 C-3 1 -3 1 0 0 Z " fill="#AE4342" transform="translate(20,125)"/>
<path d="M0 0 C1.98 0 3.96 0 6 0 C6.33 0.66 6.66 1.32 7 2 C6.34 2.66 5.68 3.32 5 4 C5 3.34 5 2.68 5 2 C3.35 2.33 1.7 2.66 0 3 C0 2.01 0 1.02 0 0 Z " fill="#C4B271" transform="translate(16,109)"/>
<path d="M0 0 C0.33 0.99 0.66 1.98 1 3 C0.01 3 -0.98 3 -2 3 C-2 3.66 -2 4.32 -2 5 C-3.32 4.67 -4.64 4.34 -6 4 C-4 1 -4 1 -1.875 0.3125 C-1.25625 0.209375 -0.6375 0.10625 0 0 Z " fill="#D7C545" transform="translate(24,103)"/>
<path d="M0 0 C0.33 0.66 0.66 1.32 1 2 C1.66 2.33 2.32 2.66 3 3 C1.625 4.5 1.625 4.5 0 6 C-0.66 6 -1.32 6 -2 6 C-2.33 6.66 -2.66 7.32 -3 8 C-3 7.34 -3 6.68 -3 6 C-3.66 5.67 -4.32 5.34 -5 5 C-4.360625 4.731875 -3.72125 4.46375 -3.0625 4.1875 C-0.66868314 3.11332248 -0.66868314 3.11332248 0 0 Z " fill="#A49C6A" transform="translate(62,80)"/>
<path d="M0 0 C0.66 0.66 1.32 1.32 2 2 C1.67 2.66 1.34 3.32 1 4 C-1.97 3.505 -1.97 3.505 -5 3 C-4 1 -4 1 -2.0625 0.25 C-1.381875 0.1675 -0.70125 0.085 0 0 Z " fill="#F3B71D" transform="translate(30,109)"/>
<path d="M0 0 C0.66 0 1.32 0 2 0 C2 2.64 2 5.28 2 8 C1.34 6.68 0.68 5.36 0 4 C-0.99 4.495 -0.99 4.495 -2 5 C-1.125 1.125 -1.125 1.125 0 0 Z " fill="#E5F7FE" transform="translate(122,105)"/>
<path d="" fill="#E8FFFF" transform="translate(0,0)"/>
<path d="" fill="#FFFFFF" transform="translate(0,0)"/>
<path d="" fill="#FFFFFF" transform="translate(0,0)"/>
<path d="" fill="#BFFFFF" transform="translate(0,0)"/>
</svg>
