<svg id="visual" viewBox="0 0 960 540" width="960" height="540" xmlns="http://www.w3.org/2000/svg" xmlns:xlink="http://www.w3.org/1999/xlink" version="1.1"><path d="M0 435L20 426.7C40 418.3 80 401.7 120 390.5C160 379.3 200 373.7 240 381.8C280 390 320 412 360 410C400 408 440 382 480 367.7C520 353.3 560 350.7 600 351C640 351.3 680 354.7 720 369.5C760 384.3 800 410.7 840 425.7C880 440.7 920 444.3 940 446.2L960 448L960 541L940 541C920 541 880 541 840 541C800 541 760 541 720 541C680 541 640 541 600 541C560 541 520 541 480 541C440 541 400 541 360 541C320 541 280 541 240 541C200 541 160 541 120 541C80 541 40 541 20 541L0 541Z" fill="#578FCA" stroke-linecap="round" stroke-linejoin="miter"></path></svg>